<svg xmlns="http://www.w3.org/2000/svg" xml:space="preserve" viewBox="0 0 237.258 133.369"><path fill="#2D2C79" d="m77.433 107.157-13.139-2.905c-.901-.198-1.738-.096-2.564.315l-1.811.9-1.354 5.613V99.04l-20.586 8.053v15.098l-1.964-4.826-15.362 7.644c-1.049.522-.917 2.062.207 2.396l19.07 5.682c1.954.583 3.88.271 5.551-.898l32.415-22.705c.923-.653.637-2.085-.463-2.327M7.8 39.847c22.941-.93 46.404-2.128 69.343-3.118 2.314-.1 3.572 2.073 3.639 4.75.356 14.237 1.19 28.956 1.6 43.189.074 2.588-2.177 4.272-4.438 5.019-22.291 7.342-44.34 15.453-66.71 22.761-4.271 1.395-7.997-.414-8.182-4.097C2.024 87.964 1 67.58.007 47.194c-.188-3.859 3.359-7.167 7.793-7.347"/><g fill="#FFF"><path d="m71.849 32.646 9.055 4.799 10.157-1.823S81.343 69.207 52.468 75.12l.003-.004c-.976.291-1.962.545-2.956.754-18.269 3.834-31.354-.376-38.212-8.596l.013-.004c8.718 9.846 31.381 4.225 43.989-6.75 12.608-10.97 15.444-18.765 16.543-27.872l.001-.002z"/><path d="M7.105 47.206c23.269-1.609 46.828-3.032 70.094-4.638.468 14.176 1.164 28.445 1.633 42.594-23.143 7.295-46.3 14.604-69.441 21.912-.763-19.955-1.524-39.912-2.286-59.868"/><path d="M53.693 55.937C42.795 65.021 24.487 72.651 9.95 66.675l.011-.008c13.123 4.977 32.516-9.74 39.606-24.878 7.089-15.138 6.171-23.263 2.945-31.803l10.563 2.156 9.623-7.218s9 34.218-19.006 51.017l.001-.004z"/></g><path fill="#2D2C79" d="M98.898 98.2c.679 0 1.304.094 1.875.279.571.188 1.063.465 1.477.834.413.369.736.832.967 1.39.231.556.347 1.202.347 1.94 0 .875-.138 1.621-.413 2.236-.276.616-.648 1.117-1.115 1.506-.468.389-1.014.672-1.639.85s-1.282.267-1.971.267h-2.628V98.2h3.1zm-1.52 8.031h.915c.453 0 .893-.051 1.321-.154.429-.104.81-.29 1.145-.563.334-.27.603-.637.804-1.1.202-.462.303-1.055.303-1.771 0-1.022-.293-1.809-.879-2.354-.585-.546-1.37-.819-2.354-.819h-1.255v6.761zm7.958-5.698h1.521v6.969h-1.521v-6.969zm.768-1.727c-.266 0-.478-.082-.635-.244-.158-.162-.237-.367-.237-.613 0-.245.079-.449.237-.612.157-.162.369-.243.635-.243.255 0 .465.081.627.243.162.163.244.367.244.612 0 .257-.082.464-.244.619-.162.158-.372.238-.627.238m2.76 4.06c0-.385.072-.729.215-1.034.142-.306.342-.563.598-.774.256-.211.561-.371.915-.479s.738-.162 1.152-.162c.305 0 .615.039.93.118h2.997v1.048h-.517l-1.092-.147c.167.188.3.403.398.649.099.247.148.502.148.769 0 .383-.069.727-.207 1.025-.138.301-.332.557-.583.768-.251.213-.554.373-.908.48s-.743.162-1.166.162c-.138 0-.269-.006-.392-.016s-.243-.023-.361-.045c-.187.08-.32.174-.399.281-.079.108-.118.227-.118.354 0 .197.069.336.207.414.137.078.334.119.59.119h1.757c.768 0 1.366.174 1.794.523.428.35.642.85.642 1.499 0 .383-.086.729-.258 1.04s-.418.576-.738.798c-.32.222-.707.392-1.159.509-.453.118-.96.178-1.521.178-1.034 0-1.851-.183-2.451-.547-.6-.363-.901-.899-.901-1.607 0-.346.114-.641.34-.887s.527-.438.901-.575c-.178-.118-.32-.259-.429-.423-.108-.16-.162-.375-.162-.641 0-.315.094-.584.28-.806.187-.222.434-.396.739-.524-.355-.166-.65-.42-.886-.76s-.355-.777-.355-1.307m1.684 4.71c-.453.216-.68.541-.68.974 0 .395.16.694.48.901.32.207.82.31 1.499.31.384 0 .709-.037.974-.111.266-.071.485-.168.657-.287.173-.117.298-.252.377-.397.079-.147.118-.3.118-.458 0-.374-.125-.622-.376-.745-.251-.124-.584-.185-.997-.185l-2.052-.002zm2.539-4.696c0-.473-.123-.824-.369-1.056-.246-.231-.571-.349-.974-.349-.414 0-.741.113-.982.34-.241.228-.362.566-.362 1.02 0 .473.123.822.369 1.049s.571.34.975.34c.413 0 .74-.113.981-.34.242-.226.362-.561.362-1.004m4.149-2.347h1.521v6.969h-1.521v-6.969zm.768-1.727c-.266 0-.478-.082-.635-.244-.157-.162-.236-.367-.236-.613 0-.245.079-.449.236-.612.157-.162.369-.243.635-.243.256 0 .465.081.627.243.162.163.243.367.243.612 0 .257-.081.464-.243.619-.162.158-.371.238-.627.238m6.688 2.847h-1.979v3.767c0 .345.08.576.242.692.164.119.383.179.658.179.196 0 .406-.022.627-.065.223-.045.416-.097.584-.156l.235 1.123c-.196.078-.45.149-.761.214-.311.063-.637.097-.981.097-.748 0-1.286-.154-1.616-.465s-.494-.771-.494-1.382v-4.001h-1.063v-1.121h1.063v-2.2h1.506v2.2h1.979v1.118zm1.713-.502c.453-.245.889-.43 1.307-.553.42-.123.885-.185 1.396-.185.395 0 .755.044 1.085.133s.613.229.849.429c.236.196.422.459.556.789.133.33.198.731.198 1.203v4.533h-1.226l-.163-.753h-.044c-.276.313-.595.544-.96.687-.363.144-.768.215-1.21.215-.698 0-1.263-.188-1.69-.562s-.643-.871-.643-1.491c0-.384.079-.717.236-.996.156-.281.379-.516.664-.701.285-.187.625-.328 1.019-.422.396-.094.827-.141 1.3-.141h1.182v-.531c0-.442-.117-.75-.354-.923-.236-.172-.563-.258-.975-.258-.256 0-.544.042-.864.125-.319.084-.687.238-1.101.465l-.562-1.063zm3.868 3.19-.931.016c-.698.021-1.19.144-1.477.369-.285.228-.428.492-.428.797 0 .196.032.359.096.487s.15.231.258.31c.108.08.234.137.377.172.144.033.287.051.437.051.306 0 .608-.076.908-.229.3-.153.554-.373.76-.658v-1.315zm3.56-7.338h1.49v10.498h-1.49V97.003zm6.983 1.197h5.759v1.27h-4.18v2.569h3.795v1.255h-3.795v2.938h4.223v1.271h-5.802V98.2zm8.829 9.301h-1.521v-6.969h1.183l.207.93c.323-.324.674-.58 1.048-.768s.813-.28 1.313-.28c.502 0 .914.099 1.233.295.32.196.563.474.731.827.334-.354.705-.631 1.113-.827s.859-.295 1.353-.295c.728 0 1.276.198 1.646.599.37.399.555.961.555 1.69v4.798h-1.521v-4.563c0-.424-.091-.748-.273-.976-.182-.228-.479-.339-.893-.339-.63 0-1.211.279-1.742.841v5.035h-1.521v-4.563c0-.422-.093-.748-.274-.975-.181-.227-.479-.339-.893-.339-.631 0-1.211.295-1.742.886v4.993zm13.82.148c-.297 0-.582-.041-.857-.118-.275-.078-.511-.188-.708-.324v3.69h-1.506v-10.455h1.226l.191.873c.275-.256.586-.471.93-.644.346-.172.743-.258 1.196-.258.925 0 1.653.3 2.185.899.532.602.799 1.451.799 2.556 0 .64-.096 1.196-.287 1.676-.192.478-.448.871-.77 1.181-.32.312-.688.541-1.105.694-.421.153-.85.23-1.294.23m.103-6.039c-.374 0-.706.092-.997.272-.289.183-.514.372-.671.569v3.587c.403.306.86.458 1.373.458.256 0 .507-.044.753-.135.246-.088.467-.234.664-.441.197-.206.354-.477.473-.804.119-.33.178-.731.178-1.204 0-.699-.146-1.258-.437-1.678-.29-.415-.736-.624-1.336-.624m4.917-4.607h1.491v10.498h-1.491V97.003zm10.01 6.939c0 .582-.091 1.104-.271 1.565-.184.462-.432.851-.745 1.166-.315.314-.687.556-1.108.724-.423.168-.881.252-1.373.252s-.945-.08-1.365-.236c-.418-.157-.781-.387-1.092-.688-.311-.3-.553-.672-.725-1.115-.172-.441-.258-.948-.258-1.521 0-.59.091-1.112.271-1.565.184-.451.432-.836.746-1.149.315-.315.686-.556 1.107-.716.423-.163.881-.244 1.373-.244s.945.076 1.365.229c.418.153.781.377 1.093.672.31.295.552.664.724 1.107s.258.95.258 1.519m-1.58.075c0-.441-.054-.819-.162-1.129-.106-.311-.25-.563-.428-.761-.177-.196-.379-.34-.604-.428-.229-.091-.463-.134-.709-.134-.237 0-.469.039-.694.117-.228.079-.428.211-.606.398-.176.188-.315.438-.42.753-.104.313-.153.709-.153 1.183 0 .434.054.808.161 1.121.107.315.252.573.429.775s.382.349.612.441c.23.095.466.142.701.142.236 0 .469-.039.693-.118.227-.079.428-.214.605-.406.178-.191.316-.447.42-.768.104-.318.155-.714.155-1.186m2.112-3.484h1.64l1.401 3.765.502 1.669h.03l.486-1.684 1.271-3.75h1.55l-2.643 7.44c-.295.836-.672 1.52-1.129 2.045-.459.526-1.057.918-1.795 1.174l-.649-1.195c.492-.188.921-.455 1.285-.805.364-.351.635-.806.812-1.365l.118-.342-2.879-6.952zm7.884.618c.453-.245.891-.43 1.309-.553s.883-.185 1.395-.185c.395 0 .756.044 1.086.133.329.089.612.229.85.429.236.197.421.459.554.789s.198.731.198 1.203v4.533h-1.225l-.164-.753h-.043c-.274.313-.596.544-.961.687-.363.144-.767.215-1.209.215-.699 0-1.264-.188-1.691-.562s-.643-.871-.643-1.491c0-.384.079-.717.236-.996.158-.281.379-.516.665-.701.284-.188.625-.328 1.019-.422.395-.094.826-.141 1.299-.141h1.183v-.531c0-.442-.118-.75-.354-.923-.236-.172-.562-.258-.975-.258-.256 0-.544.042-.863.125-.32.084-.687.238-1.101.465l-.565-1.063zm3.869 3.19-.931.016c-.698.021-1.19.144-1.478.369-.283.228-.428.492-.428.797 0 .196.032.359.096.487s.15.231.26.31c.107.08.232.137.377.172.142.033.287.051.435.051.306 0 .608-.076.908-.229.3-.153.554-.373.761-.658v-1.315zm9.951-.324c0 .563-.084 1.065-.251 1.514-.167.447-.396.828-.688 1.145-.289.314-.629.557-1.018.725-.389.166-.805.25-1.248.25-.453 0-.847-.065-1.182-.198-.334-.134-.645-.332-.93-.599h-.029l-.135.649h-1.092v-10.5h1.506v4.297c.285-.295.61-.517.976-.664.362-.148.748-.222 1.151-.222.904 0 1.621.315 2.147.952.529.635.793 1.519.793 2.651m-1.58.029c0-.748-.156-1.339-.472-1.771-.315-.434-.753-.648-1.313-.648-.346 0-.658.078-.939.234-.28.158-.533.365-.76.621v3.321c.178.207.387.374.627.503.24.127.516.191.819.191.265 0 .521-.05.769-.148.244-.098.463-.246.648-.44.188-.197.338-.451.45-.763.115-.31.171-.677.171-1.1m3.248-3.513h1.521v6.969h-1.521v-6.969zm.768-1.727c-.266 0-.477-.082-.635-.244-.156-.162-.236-.367-.236-.613 0-.245.08-.449.236-.612.158-.162.369-.243.635-.243.258 0 .467.081.629.243.162.163.242.367.242.612 0 .257-.08.464-.242.619-.165.158-.374.238-.629.238m2.91-1.803h1.49v10.498h-1.49V97.003zm3.646 3.53h1.521v6.969h-1.521v-6.969zm.768-1.727c-.266 0-.478-.082-.635-.244-.158-.162-.236-.367-.236-.613 0-.245.078-.449.236-.612.157-.162.369-.243.635-.243.256 0 .465.081.627.243.162.163.244.367.244.612 0 .257-.082.464-.244.619-.162.158-.371.238-.627.238m6.688 2.847H215.2v3.767c0 .345.082.576.244.692.162.119.383.179.657.179.196 0 .405-.022.628-.065.221-.045.416-.097.583-.156l.235 1.123c-.196.078-.449.149-.76.214-.311.063-.639.097-.981.097-.748 0-1.287-.154-1.617-.465s-.495-.771-.495-1.382v-4.001h-1.063v-1.121h1.063v-2.2h1.506v2.2h1.979v1.118zm.93-1.12h1.64l1.402 3.765.502 1.669h.029l.486-1.684 1.271-3.75h1.55l-2.642 7.44c-.296.836-.673 1.52-1.13 2.045-.459.526-1.057.918-1.795 1.174l-.649-1.195c.493-.188.921-.455 1.285-.805.364-.351.635-.806.812-1.365l.118-.342-2.879-6.952zM95.798 115.771h5.758v1.27h-4.178v2.568h3.794v1.256h-3.794v2.938h4.222v1.27h-5.802v-9.302zm8.829 9.3h-1.521v-6.969h1.196l.207.932c.344-.336.706-.594 1.085-.776.379-.182.81-.272 1.292-.272.738 0 1.309.201 1.713.605.403.403.605.979.605 1.727v4.755h-1.521v-4.563c0-.403-.103-.723-.31-.96-.206-.236-.516-.354-.93-.354-.315 0-.627.076-.937.229-.311.152-.603.371-.879.657v4.989zm8.062 0h-1.521v-10.496h1.521v4.324c.315-.256.662-.473 1.041-.648.378-.178.799-.268 1.262-.268.394 0 .738.061 1.033.18.296.117.539.279.731.486.192.205.335.453.428.737.094.285.141.595.141.931v4.754h-1.521v-4.413c0-.522-.108-.896-.325-1.122-.216-.229-.531-.342-.945-.342-.305 0-.617.076-.937.229-.32.152-.623.362-.908.627v5.021zm6.659-6.347c.451-.248.888-.432 1.306-.555.419-.123.884-.186 1.396-.186.395 0 .757.045 1.086.134.33.089.611.231.85.428.236.197.42.461.553.79.133.33.2.73.2 1.204v4.53h-1.226l-.162-.752h-.045c-.275.314-.596.543-.959.688-.364.143-.77.214-1.211.214-.699 0-1.264-.187-1.691-.561s-.642-.871-.642-1.491c0-.384.079-.716.235-.997.158-.28.379-.515.665-.701s.625-.327 1.021-.421c.394-.094.825-.14 1.299-.14h1.181v-.532c0-.443-.117-.75-.354-.923s-.563-.259-.977-.259c-.256 0-.543.041-.861.125-.32.084-.688.238-1.102.467l-.562-1.062zm3.867 3.189-.93.015c-.699.02-1.19.142-1.478.369-.285.226-.429.492-.429.797 0 .197.031.359.097.487.063.128.149.23.258.311.108.078.233.135.377.17s.288.051.437.051c.306 0 .606-.075.908-.229.301-.152.553-.371.76-.656v-1.315zm4.873 3.158h-1.521v-6.969h1.196l.207.932c.345-.336.706-.594 1.085-.776.379-.182.811-.272 1.292-.272.737 0 1.31.201 1.713.605.403.403.604.979.604 1.727v4.755h-1.521v-4.563c0-.403-.104-.723-.312-.96-.207-.236-.517-.354-.931-.354-.313 0-.627.076-.937.229-.312.152-.604.371-.879.657v4.989h.004zm9.937-1.004c.315 0 .593-.036.834-.109.241-.074.46-.16.657-.26l.311 1.094c-.236.128-.521.23-.855.311-.336.078-.704.117-1.108.117-.511 0-.991-.076-1.438-.229s-.838-.381-1.166-.68c-.33-.301-.592-.678-.782-1.131-.192-.451-.288-.979-.288-1.578 0-.552.089-1.052.266-1.5.178-.447.43-.828.754-1.144s.713-.558 1.166-.726c.453-.166.949-.25 1.49-.25.307 0 .613.024.924.074.311.049.651.162 1.025.34l-.339 1.106c-.464-.256-.945-.384-1.447-.384-.679 0-1.231.212-1.653.635-.424.423-.636 1.023-.636 1.801 0 .473.067.869.2 1.189.133.318.307.578.523.773.217.197.459.338.73.422.266.088.546.129.832.129m8.845-2.214h-4.888v.061c0 .709.207 1.245.62 1.607.413.364.96.547 1.639.547.375 0 .711-.031 1.012-.096.301-.063.604-.164.908-.303l.295 1.105c-.285.129-.625.234-1.019.318-.396.083-.827.125-1.3.125-.502 0-.979-.068-1.434-.207-.453-.137-.849-.354-1.188-.648-.34-.297-.607-.67-.807-1.121-.195-.453-.295-.995-.295-1.625 0-.541.082-1.036.244-1.483.162-.448.395-.832.693-1.151.301-.319.665-.565 1.093-.737.429-.175.903-.261 1.425-.261.453 0 .863.074 1.233.224.369.146.685.356.944.627.261.271.463.601.604.989.144.389.214.818.214 1.291v.738h.007zm-1.566-1.062c0-.237-.03-.458-.089-.665-.061-.207-.147-.387-.268-.539-.117-.152-.271-.275-.465-.369-.191-.093-.42-.14-.686-.14-.492 0-.895.155-1.203.472-.313.314-.5.739-.569 1.27l3.28-.029zm4.562 4.28h-1.521v-6.969h1.182l.206.932c.325-.325.676-.581 1.049-.77.375-.187.813-.281 1.314-.281s.912.101 1.232.297c.318.195.563.473.729.826.335-.354.707-.631 1.114-.826.408-.196.859-.297 1.352-.297.729 0 1.277.201 1.646.6s.555.963.555 1.689v4.799h-1.521v-4.563c0-.423-.091-.748-.271-.974-.184-.228-.48-.341-.895-.341-.629 0-1.211.281-1.742.843v5.032h-1.521v-4.562c0-.423-.091-.748-.272-.974-.183-.229-.479-.342-.895-.342-.63 0-1.21.297-1.742.888v4.993h.001zm16.832-3.218h-4.887v.061c0 .709.207 1.245.62 1.607.413.364.96.547 1.639.547.374 0 .712-.031 1.011-.096.303-.063.604-.164.908-.303l.297 1.105c-.287.129-.625.234-1.02.318-.395.083-.827.125-1.299.125-.502 0-.98-.068-1.434-.207-.453-.137-.85-.354-1.188-.648-.341-.297-.608-.67-.806-1.121-.197-.453-.295-.995-.295-1.625 0-.541.08-1.036.242-1.483.163-.448.395-.832.694-1.151.301-.319.665-.565 1.093-.737.428-.175.902-.261 1.426-.261.452 0 .863.074 1.232.224.369.146.684.356.943.627.261.271.463.601.605.989.143.388.214.818.214 1.291v.738h.005zm-1.565-1.062c0-.237-.03-.458-.09-.665s-.146-.387-.266-.539-.273-.275-.465-.369c-.191-.093-.421-.14-.688-.14-.492 0-.894.155-1.203.472-.311.314-.5.739-.568 1.27l3.28-.029zm4.562 4.28h-1.521v-6.969h1.195l.207.932c.346-.336.705-.594 1.084-.776.379-.182.812-.272 1.293-.272.738 0 1.311.201 1.713.605.403.403.604.979.604 1.727v4.755h-1.521v-4.563c0-.403-.104-.723-.311-.96-.207-.236-.518-.354-.932-.354-.314 0-.627.076-.938.229-.31.152-.604.371-.879.657v4.989h.006zm10.277-5.845h-1.979v3.766c0 .344.082.574.244.693.162.117.381.176.657.176.196 0 .405-.021.627-.065.222-.044.416-.097.583-.155l.236 1.123c-.196.078-.45.15-.762.213-.31.064-.637.097-.98.097-.748 0-1.286-.154-1.616-.466-.33-.31-.495-.77-.495-1.379v-4.002h-1.063v-1.123h1.063v-2.199h1.506v2.199h1.979v1.122zm5.123-3.455h3.04c.504 0 .959.063 1.365.191.41.128.76.313 1.051.553.289.241.516.537.679.887.162.351.243.75.243 1.203 0 .502-.088.938-.266 1.308-.179.368-.424.674-.738.916-.315.239-.688.42-1.114.538-.429.117-.896.178-1.396.178h-1.283v3.527h-1.58l-.001-9.301zm1.579 4.518h.842c.335 0 .643-.024.923-.074.281-.049.524-.135.729-.259.207-.123.369-.29.488-.502.117-.211.178-.484.178-.819 0-.295-.056-.546-.162-.753-.108-.207-.258-.374-.443-.502-.188-.128-.398-.221-.635-.281-.236-.059-.487-.088-.754-.088h-1.166v3.278zm6.143 4.782v-6.969h1.152l.221 1.344c.167-.412.438-.76.813-1.041.373-.279.826-.422 1.358-.422.236 0 .44.021.612.061.173.04.328.094.465.163l-.279 1.271c-.119-.06-.255-.108-.406-.147-.152-.039-.326-.06-.523-.06-.542 0-.995.185-1.359.554-.363.368-.545.928-.545 1.676v3.572l-1.509-.002zm11.753-3.558c0 .581-.091 1.104-.272 1.565-.182.463-.432.853-.746 1.167s-.684.556-1.106.723c-.424.167-.881.251-1.372.251-.494 0-.949-.079-1.367-.235-.418-.157-.781-.387-1.093-.688-.31-.3-.551-.672-.723-1.115-.173-.441-.261-.949-.261-1.52 0-.592.093-1.113.273-1.564.184-.453.432-.838.746-1.152s.684-.555 1.107-.717c.423-.162.881-.244 1.373-.244s.947.078 1.365.229c.418.153.782.377 1.094.672.31.296.551.664.723 1.107.173.443.259.95.259 1.521m-1.579.074c0-.443-.055-.82-.162-1.13-.108-.312-.252-.563-.43-.761-.177-.196-.379-.34-.605-.428-.226-.09-.463-.134-.709-.134-.234 0-.467.039-.692.118s-.429.212-.604.398c-.178.188-.316.438-.422.752-.103.315-.154.709-.154 1.183 0 .433.055.808.162 1.122.108.314.252.573.43.773.177.203.381.352.611.443.231.094.465.141.701.141s.467-.039.694-.117c.226-.078.428-.215.604-.406.178-.191.317-.448.42-.768.103-.316.156-.713.156-1.186m3.011-1.15c0-.386.07-.729.213-1.035.144-.305.343-.563.599-.774.256-.211.562-.371.915-.479.355-.107.738-.162 1.152-.162.305 0 .613.039.93.119h2.997v1.047h-.517l-1.094-.146c.168.188.301.403.399.648.098.246.146.503.146.769 0 .386-.068.728-.205 1.026-.139.3-.332.556-.584.768s-.554.372-.908.48c-.354.107-.742.162-1.166.162-.139 0-.269-.006-.392-.016-.122-.01-.243-.023-.36-.045-.188.079-.32.174-.399.281-.078.107-.118.227-.118.354 0 .196.069.336.207.414.139.077.335.117.592.117h1.756c.769 0 1.365.176 1.795.523.429.35.643.85.643 1.498 0 .385-.086.73-.26 1.041-.172.311-.418.576-.737.799-.319.221-.706.391-1.159.509s-.96.178-1.521.178c-1.032 0-1.85-.183-2.45-.547-.601-.362-.899-.899-.899-1.608 0-.345.112-.641.338-.886.229-.247.527-.438.901-.575-.177-.119-.319-.261-.428-.422-.109-.162-.163-.377-.163-.643 0-.314.094-.583.281-.805.187-.221.433-.396.736-.524-.354-.167-.648-.421-.886-.76-.236-.34-.354-.777-.354-1.306m1.683 4.709c-.453.217-.679.541-.679.975 0 .395.16.693.479.9.32.207.819.311 1.498.311.385 0 .709-.037.977-.109.266-.074.483-.172.656-.289.172-.117.299-.25.375-.397.079-.148.119-.302.119-.458 0-.374-.126-.623-.377-.746s-.583-.184-.997-.184h-2.051v-.003zm2.54-4.695c0-.474-.123-.825-.37-1.056-.246-.231-.569-.349-.974-.349-.414 0-.741.113-.982.341-.24.227-.361.565-.361 1.019 0 .473.123.821.369 1.049s.57.339.975.339c.414 0 .74-.111.982-.339.24-.227.361-.561.361-1.004m3.971 4.621v-6.97h1.152l.221 1.345c.168-.414.438-.761.813-1.041.375-.281.828-.421 1.359-.421.235 0 .439.02.612.059.172.039.327.096.465.162l-.28 1.271c-.117-.061-.254-.108-.406-.148-.151-.039-.326-.059-.523-.059-.541 0-.994.185-1.357.554-.365.368-.547.928-.547 1.676v3.573l-1.509-.001zm5.463-6.348c.453-.246.891-.432 1.309-.556.418-.123.883-.185 1.395-.185.395 0 .756.045 1.086.134.329.088.612.231.85.428.236.197.42.46.554.79.133.33.198.73.198 1.203v4.533h-1.225l-.164-.754h-.043c-.275.314-.596.545-.961.688-.363.143-.767.215-1.209.215-.699 0-1.264-.188-1.691-.562-.428-.375-.643-.872-.643-1.492 0-.384.079-.716.236-.996.158-.28.379-.515.665-.702.284-.187.625-.326 1.019-.42.395-.094.826-.141 1.301-.141h1.181v-.531c0-.441-.118-.751-.354-.923s-.562-.259-.975-.259c-.256 0-.544.041-.864.125-.319.084-.687.24-1.1.466l-.565-1.061zm3.869 3.188-.931.015c-.698.021-1.19.145-1.478.369-.283.229-.428.492-.428.798 0 .196.032.359.098.487.063.128.148.23.258.311.106.08.232.135.377.17.142.035.287.051.435.051.306 0 .608-.075.908-.229.3-.15.554-.369.761-.656v-1.316zm4.872 3.16h-1.521v-6.97h1.181l.207.931c.325-.325.674-.581 1.048-.769s.813-.279 1.314-.279c.5 0 .912.098 1.231.295.32.197.563.473.731.826.334-.354.705-.629 1.115-.826.406-.197.857-.295 1.351-.295.728 0 1.276.199 1.646.598.368.398.555.962.555 1.689v4.8h-1.521v-4.563c0-.424-.091-.746-.271-.975-.184-.227-.48-.34-.895-.34-.63 0-1.211.281-1.742.842v5.035h-1.521v-4.563c0-.424-.091-.747-.274-.975-.182-.226-.479-.339-.893-.339-.631 0-1.211.295-1.742.885l.001 4.993z"/><path fill="#F47521" d="M107.209 56.918c2.497 0 4.76.317 6.791.949 2.03.633 3.77 1.582 5.219 2.846 1.447 1.266 2.563 2.838 3.344 4.719.783 1.881 1.174 4.069 1.174 6.566 0 2.796-.467 5.218-1.398 7.265-.932 2.049-2.205 3.745-3.818 5.094-1.615 1.349-3.504 2.355-5.667 3.021-2.164.667-4.461.999-6.891.999h-9.987V56.918h11.233zm-3.645 25.666h1.948c1.331 0 2.622-.166 3.87-.5 1.249-.332 2.338-.906 3.271-1.724.932-.814 1.681-1.904 2.247-3.271.566-1.364.849-3.063.849-5.093 0-3.029-.849-5.334-2.547-6.916-1.698-1.581-3.995-2.372-6.891-2.372h-2.747v19.876zm25.267-25.666h20.973v5.792H136.42v6.441h12.084v5.742H136.42v7.689h13.531v5.792H128.83V56.918h.001zm26.114 0h20.972v5.792h-13.381v6.441h12.084v5.742h-12.084v7.689h13.53v5.792h-21.121V56.918zm26.115 0h11.385c1.897 0 3.611.217 5.144.649 1.531.433 2.838 1.066 3.92 1.897 1.08.833 1.914 1.84 2.496 3.021.582 1.182.875 2.539.875 4.07 0 1.833-.351 3.413-1.049 4.744-.699 1.332-1.642 2.438-2.822 3.32-1.182.883-2.563 1.53-4.145 1.946-1.582.418-3.254.625-5.02.625h-3.194v11.186h-7.59V56.918zm7.59 14.531h2.746c.731 0 1.448-.082 2.147-.249.697-.167 1.306-.426 1.822-.774.516-.35.932-.807 1.247-1.373.316-.565.476-1.265.476-2.097 0-1.432-.491-2.514-1.473-3.246-.982-.732-2.289-1.099-3.921-1.099h-3.046l.002 8.838z"/><path fill="#2D2C79" d="M100.212 49.296c.482 0 .883-.042 1.203-.125s.623-.194.908-.332l.339 1.225c-.315.148-.679.269-1.093.362-.413.093-.92.14-1.521.14-.64 0-1.238-.105-1.794-.317-.556-.211-1.039-.521-1.447-.93-.409-.408-.731-.91-.967-1.506s-.354-1.277-.354-2.045c0-.748.113-1.42.34-2.016.226-.595.543-1.1.952-1.513.408-.414.896-.729 1.462-.945.566-.216 1.188-.325 1.868-.325.62 0 1.129.052 1.528.155.398.104.75.239 1.056.406l-.369 1.196c-.335-.148-.652-.266-.953-.354-.3-.088-.657-.133-1.07-.133-.423 0-.825.063-1.203.192-.379.128-.709.335-.989.62-.281.286-.505.652-.672 1.1-.167.448-.251.987-.251 1.617s.081 1.169.244 1.617c.162.448.378.813.649 1.093s.591.487.96.62.76.198 1.174.198zm6.821-8.327c1.014 0 1.9.188 2.658.563l-.369 1.255c-.413-.197-.795-.342-1.144-.436-.35-.094-.701-.14-1.056-.14-.532 0-.95.113-1.255.339-.305.227-.458.542-.458.945 0 .354.118.635.354.842.236.207.62.394 1.152.561l.915.295c.807.256 1.398.613 1.772 1.07.374.457.561.987.561 1.587 0 .403-.079.772-.236 1.107-.158.335-.381.62-.672.856s-.642.421-1.056.554c-.413.133-.871.199-1.373.199s-1.001-.047-1.499-.14c-.498-.093-.982-.253-1.455-.48l.369-1.24c.423.207.837.362 1.24.465.404.104.827.155 1.27.155.531 0 .964-.113 1.299-.339.334-.227.502-.561.502-1.004 0-.315-.116-.596-.347-.842-.231-.246-.682-.477-1.351-.694l-.871-.281c-.679-.226-1.213-.529-1.602-.908s-.583-.908-.583-1.587c0-.817.275-1.471.827-1.964.552-.492 1.354-.738 2.408-.738zm5.418.148h2.038l1.639 5.02c.138.423.258.805.361 1.144.104.34.209.721.317 1.145h.044c.108-.354.219-.733.333-1.137.113-.403.224-.787.332-1.151l1.58-5.02h2.038l.768 9.302h-1.535c-.078-.984-.154-1.976-.23-2.975-.072-.999-.131-2-.17-3.005l-.059-1.698h-.029c-.168.61-.342 1.23-.523 1.86-.184.63-.372 1.235-.568 1.816l-1.314 4.001h-1.343l-1.329-4.016c-.138-.423-.258-.807-.362-1.151-.103-.345-.197-.662-.28-.953-.084-.29-.16-.563-.229-.819s-.133-.502-.192-.738h-.044c-.029.837-.074 1.688-.133 2.554-.059.866-.113 1.698-.163 2.496l-.177 2.628h-1.506l.736-9.303zm14.262-.148c1.015 0 1.899.188 2.658.563l-.369 1.255c-.414-.197-.795-.342-1.145-.436-.35-.094-.701-.14-1.057-.14-.53 0-.949.113-1.254.339-.307.227-.459.542-.459.945 0 .354.119.635.354.842.236.207.62.394 1.151.561l.916.295c.807.256 1.396.613 1.771 1.07.373.457.561.987.561 1.587 0 .403-.078.772-.235 1.107s-.382.62-.672.856c-.291.236-.644.421-1.056.554-.414.133-.871.199-1.373.199-.504 0-1.002-.047-1.5-.14-.496-.093-.98-.253-1.453-.48l.369-1.24c.423.207.836.362 1.24.465.402.104.825.155 1.27.155.531 0 .965-.113 1.299-.339.335-.227.502-.561.502-1.004 0-.315-.115-.596-.348-.842-.231-.246-.682-.477-1.35-.694l-.871-.281c-.681-.226-1.215-.529-1.604-.908s-.583-.908-.583-1.587c0-.817.274-1.471.827-1.964.557-.492 1.361-.738 2.411-.738z"/><path fill="#ED1067" d="M52.031 71.591c-11.859 3.534-28.719 3.157-37.277-7.1l.012-.003c7.894 8.913 28.415 3.823 39.831-6.112 11.417-9.935 14.347-17.769 15.342-26.015l7.374 5.49 9.661-2.022s-8.799 30.412-34.946 35.765l.003-.003zm27.483-38.51c2.404 0 4.364-1.961 4.364-4.364 0-2.404-1.96-4.365-4.364-4.365s-4.364 1.961-4.364 4.365c0 2.403 1.96 4.364 4.364 4.364"/><path fill="#F47521" d="M51.307 54.935c-9.128 8.354-24.464 15.371-36.64 9.875l.009-.008c10.993 4.577 27.237-8.957 33.175-22.877 5.938-13.921 4.549-23.254 1.846-31.108l9.639 2.728 7.81-6.034s5.351 31.203-15.84 47.428l.001-.004zM55.427.438c2.169-1.052 4.78-.146 5.831 2.023 1.052 2.169.146 4.78-2.023 5.831-2.169 1.052-4.779.146-5.831-2.023-1.052-2.168-.146-4.778 2.023-5.831"/></svg>